<svg width="1446" height="194" viewBox="0 0 1446 194" fill="none" xmlns="http://www.w3.org/2000/svg">
<path d="M108.349 56.7979C107.612 49.3721 104.452 43.6033 98.8671 39.4915C93.2824 35.3797 85.7032 33.3238 76.1295 33.3238C69.6243 33.3238 64.1317 34.2444 59.6517 36.0855C55.1716 37.8652 51.7349 40.3507 49.3415 43.5419C47.0094 46.7332 45.8434 50.354 45.8434 54.4045C45.7207 57.7798 46.4264 60.7256 47.9607 63.2417C49.5563 65.7579 51.7349 67.9365 54.4966 69.7776C57.2582 71.5574 60.4495 73.1223 64.0703 74.4724C67.6911 75.7612 71.5574 76.8659 75.6692 77.7864L92.6074 81.8369C100.831 83.678 108.379 86.1328 115.253 89.2013C122.126 92.2698 128.079 96.044 133.112 100.524C138.144 105.004 142.041 110.282 144.803 116.357C147.626 122.433 149.068 129.399 149.129 137.254C149.068 148.792 146.122 158.795 140.292 167.264C134.523 175.672 126.177 182.208 115.253 186.872C104.39 191.474 91.2879 193.776 75.9454 193.776C60.7256 193.776 47.4697 191.444 36.1776 186.78C24.9469 182.115 16.171 175.211 9.84988 166.067C3.59013 156.862 0.306835 145.478 -1.5261e-05 131.915H38.5711C39.0006 138.236 40.8111 143.514 44.0023 147.748C47.2549 151.921 51.5815 155.082 56.9821 157.23C62.444 159.317 68.6117 160.36 75.4851 160.36C82.2358 160.36 88.0967 159.378 93.0676 157.414C98.1 155.45 101.997 152.719 104.759 149.221C107.52 145.723 108.901 141.703 108.901 137.162C108.901 132.927 107.643 129.368 105.127 126.484C102.672 123.599 99.0512 121.144 94.2644 119.119C89.5389 117.094 83.7394 115.253 76.866 113.596L56.3377 108.441C40.4428 104.574 27.8927 98.5295 18.6872 90.3059C9.48166 82.0823 4.90959 71.005 4.97096 57.074C4.90959 45.6592 7.9474 35.6866 14.0844 27.1562C20.2828 18.6257 28.7825 11.9671 39.5837 7.18021C50.3848 2.39334 62.6588 -8.9256e-05 76.4057 -8.9256e-05C90.398 -8.9256e-05 102.611 2.39334 113.044 7.18021C123.538 11.9671 131.7 18.6257 137.53 27.1562C143.36 35.6866 146.368 45.5672 146.552 56.7979H108.349ZM175.94 191.106V2.57745H215.8V85.7032H218.286L286.13 2.57745H333.907L263.945 86.9919L334.735 191.106H287.051L235.408 113.596L215.8 137.53V191.106H175.94ZM394.525 2.57745V191.106H354.665V2.57745H394.525ZM585.01 2.57745V191.106H550.581L468.56 72.4472H467.179V191.106H427.32V2.57745H462.3L543.677 121.144H545.334V2.57745H585.01ZM617.943 191.106V2.57745H657.802V158.243H738.627V191.106H617.943ZM765.023 191.106V2.57745H892.059V35.4411H804.883V80.364H885.524V113.228H804.883V158.243H892.428V191.106H765.023ZM956.245 191.106H913.531L978.614 2.57745H1029.98L1094.97 191.106H1052.26L1005.03 45.6592H1003.56L956.245 191.106ZM953.575 117.002H1054.47V148.116H953.575V117.002ZM1117.66 191.106V2.57745H1192.04C1206.28 2.57745 1218.43 5.12431 1228.5 10.218C1238.62 15.2504 1246.33 22.4 1251.6 31.6669C1256.94 40.8724 1259.61 51.7042 1259.61 64.1623C1259.61 76.6818 1256.91 87.4522 1251.51 96.4736C1246.11 105.434 1238.29 112.307 1228.04 117.094C1217.85 121.881 1205.51 124.274 1191.03 124.274H1141.23V92.2391H1184.59C1192.2 92.2391 1198.52 91.1958 1203.55 89.1092C1208.58 87.0226 1212.33 83.8928 1214.78 79.7196C1217.3 75.5464 1218.56 70.3607 1218.56 64.1623C1218.56 57.9025 1217.3 52.6247 1214.78 48.3288C1212.33 44.0329 1208.55 40.7803 1203.46 38.571C1198.43 36.3003 1192.07 35.1649 1184.4 35.1649H1157.52V191.106H1117.66ZM1219.48 105.311L1266.33 191.106H1222.33L1176.49 105.311H1219.48ZM1445.47 2.57745V191.106H1411.04L1329.02 72.4472H1327.64V191.106H1287.78V2.57745H1322.76L1404.14 121.144H1405.8V2.57745H1445.47Z" fill="white"/>
</svg>
